<mxfile host="app.diagrams.net" agent="Mozilla/5.0 (Windows NT 10.0; Win64; x64) AppleWebKit/537.36 (KHTML, like Gecko) Chrome/140.0.0.0 Safari/537.36" version="28.2.1">
  <diagram name="Page-1" id="YzFeRjP6y-yqSmwC7Y67">
    <mxGraphModel dx="1042" dy="561" grid="1" gridSize="10" guides="1" tooltips="1" connect="1" arrows="1" fold="1" page="1" pageScale="1" pageWidth="850" pageHeight="1100" math="0" shadow="0">
      <root>
        <mxCell id="0" />
        <mxCell id="1" parent="0" />
        <mxCell id="cw3ybI9CJez9jfqQfhBN-1" value="AWS Account" style="points=[[0,0],[0.25,0],[0.5,0],[0.75,0],[1,0],[1,0.25],[1,0.5],[1,0.75],[1,1],[0.75,1],[0.5,1],[0.25,1],[0,1],[0,0.75],[0,0.5],[0,0.25]];outlineConnect=0;gradientColor=none;html=1;whiteSpace=wrap;fontSize=12;fontStyle=0;container=1;pointerEvents=0;collapsible=0;recursiveResize=0;shape=mxgraph.aws4.group;grIcon=mxgraph.aws4.group_account;strokeColor=#CD2264;fillColor=none;verticalAlign=top;align=left;spacingLeft=30;fontColor=#CD2264;dashed=0;" vertex="1" parent="1">
          <mxGeometry x="440" y="40" width="290" height="370" as="geometry" />
        </mxCell>
        <mxCell id="cw3ybI9CJez9jfqQfhBN-3" style="edgeStyle=orthogonalEdgeStyle;rounded=0;orthogonalLoop=1;jettySize=auto;html=1;entryX=0;entryY=0.25;entryDx=0;entryDy=0;" edge="1" parent="1" source="cw3ybI9CJez9jfqQfhBN-2" target="cw3ybI9CJez9jfqQfhBN-1">
          <mxGeometry relative="1" as="geometry" />
        </mxCell>
        <mxCell id="cw3ybI9CJez9jfqQfhBN-2" value="" style="outlineConnect=0;dashed=0;verticalLabelPosition=bottom;verticalAlign=top;align=center;html=1;shape=mxgraph.aws3.management_console;fillColor=#F58534;gradientColor=none;" vertex="1" parent="1">
          <mxGeometry x="150" y="70" width="70" height="70" as="geometry" />
        </mxCell>
        <mxCell id="cw3ybI9CJez9jfqQfhBN-5" style="edgeStyle=orthogonalEdgeStyle;rounded=0;orthogonalLoop=1;jettySize=auto;html=1;" edge="1" parent="1" source="cw3ybI9CJez9jfqQfhBN-4">
          <mxGeometry relative="1" as="geometry">
            <mxPoint x="430" y="200" as="targetPoint" />
          </mxGeometry>
        </mxCell>
        <mxCell id="cw3ybI9CJez9jfqQfhBN-4" value="" style="sketch=0;points=[[0,0,0],[0.25,0,0],[0.5,0,0],[0.75,0,0],[1,0,0],[0,1,0],[0.25,1,0],[0.5,1,0],[0.75,1,0],[1,1,0],[0,0.25,0],[0,0.5,0],[0,0.75,0],[1,0.25,0],[1,0.5,0],[1,0.75,0]];outlineConnect=0;fontColor=#232F3E;fillColor=#ED7100;strokeColor=#ffffff;dashed=0;verticalLabelPosition=bottom;verticalAlign=top;align=center;html=1;fontSize=12;fontStyle=0;aspect=fixed;shape=mxgraph.aws4.resourceIcon;resIcon=mxgraph.aws4.genomics_cli;" vertex="1" parent="1">
          <mxGeometry x="155" y="160" width="60" height="60" as="geometry" />
        </mxCell>
        <mxCell id="cw3ybI9CJez9jfqQfhBN-7" style="edgeStyle=orthogonalEdgeStyle;rounded=0;orthogonalLoop=1;jettySize=auto;html=1;" edge="1" parent="1" source="cw3ybI9CJez9jfqQfhBN-6" target="cw3ybI9CJez9jfqQfhBN-1">
          <mxGeometry relative="1" as="geometry" />
        </mxCell>
        <mxCell id="cw3ybI9CJez9jfqQfhBN-6" value="&lt;b&gt;Terraform&lt;/b&gt;" style="rounded=0;whiteSpace=wrap;html=1;" vertex="1" parent="1">
          <mxGeometry x="125" y="240" width="120" height="60" as="geometry" />
        </mxCell>
        <mxCell id="cw3ybI9CJez9jfqQfhBN-9" style="edgeStyle=orthogonalEdgeStyle;rounded=0;orthogonalLoop=1;jettySize=auto;html=1;" edge="1" parent="1" source="cw3ybI9CJez9jfqQfhBN-8" target="cw3ybI9CJez9jfqQfhBN-1">
          <mxGeometry relative="1" as="geometry">
            <Array as="points">
              <mxPoint x="343" y="370" />
              <mxPoint x="343" y="310" />
            </Array>
          </mxGeometry>
        </mxCell>
        <mxCell id="cw3ybI9CJez9jfqQfhBN-8" value="Ansible" style="rounded=0;whiteSpace=wrap;html=1;" vertex="1" parent="1">
          <mxGeometry x="125" y="340" width="120" height="60" as="geometry" />
        </mxCell>
        <mxCell id="cw3ybI9CJez9jfqQfhBN-10" value="&lt;b&gt;Boto3 and Botocore&lt;/b&gt;" style="text;html=1;align=center;verticalAlign=middle;resizable=0;points=[];autosize=1;strokeColor=none;fillColor=none;" vertex="1" parent="1">
          <mxGeometry x="280" y="380" width="140" height="30" as="geometry" />
        </mxCell>
        <mxCell id="cw3ybI9CJez9jfqQfhBN-11" value="&lt;b&gt;SDK&lt;/b&gt;" style="text;html=1;align=center;verticalAlign=middle;resizable=0;points=[];autosize=1;strokeColor=none;fillColor=none;" vertex="1" parent="1">
          <mxGeometry x="325" y="410" width="50" height="30" as="geometry" />
        </mxCell>
        <mxCell id="cw3ybI9CJez9jfqQfhBN-13" value="" style="rounded=0;whiteSpace=wrap;html=1;fillColor=#dae8fc;gradientColor=#7ea6e0;strokeColor=#6c8ebf;" vertex="1" parent="1">
          <mxGeometry x="245" y="570" width="165" height="140" as="geometry" />
        </mxCell>
        <mxCell id="cw3ybI9CJez9jfqQfhBN-14" value="" style="outlineConnect=0;dashed=0;verticalLabelPosition=bottom;verticalAlign=top;align=center;html=1;shape=mxgraph.aws3.android;fillColor=#FFD44F;gradientColor=none;" vertex="1" parent="1">
          <mxGeometry x="251.5" y="598" width="78.5" height="72" as="geometry" />
        </mxCell>
        <mxCell id="cw3ybI9CJez9jfqQfhBN-22" style="edgeStyle=orthogonalEdgeStyle;rounded=0;orthogonalLoop=1;jettySize=auto;html=1;" edge="1" parent="1" source="cw3ybI9CJez9jfqQfhBN-15" target="cw3ybI9CJez9jfqQfhBN-21">
          <mxGeometry relative="1" as="geometry">
            <Array as="points">
              <mxPoint x="490" y="635" />
              <mxPoint x="490" y="749" />
            </Array>
          </mxGeometry>
        </mxCell>
        <mxCell id="cw3ybI9CJez9jfqQfhBN-15" value="" style="outlineConnect=0;dashed=0;verticalLabelPosition=bottom;verticalAlign=top;align=center;html=1;shape=mxgraph.aws3.lambda_function;fillColor=#F58534;gradientColor=none;" vertex="1" parent="1">
          <mxGeometry x="340" y="600" width="60" height="70" as="geometry" />
        </mxCell>
        <mxCell id="cw3ybI9CJez9jfqQfhBN-16" value="" style="sketch=0;points=[[0,0,0],[0.25,0,0],[0.5,0,0],[0.75,0,0],[1,0,0],[0,1,0],[0.25,1,0],[0.5,1,0],[0.75,1,0],[1,1,0],[0,0.25,0],[0,0.5,0],[0,0.75,0],[1,0.25,0],[1,0.5,0],[1,0.75,0]];outlineConnect=0;fontColor=#232F3E;fillColor=#ED7100;strokeColor=#ffffff;dashed=0;verticalLabelPosition=bottom;verticalAlign=top;align=center;html=1;fontSize=12;fontStyle=0;aspect=fixed;shape=mxgraph.aws4.resourceIcon;resIcon=mxgraph.aws4.ec2;" vertex="1" parent="1">
          <mxGeometry x="546" y="596" width="78" height="78" as="geometry" />
        </mxCell>
        <mxCell id="cw3ybI9CJez9jfqQfhBN-17" style="edgeStyle=orthogonalEdgeStyle;rounded=0;orthogonalLoop=1;jettySize=auto;html=1;entryX=0;entryY=0.5;entryDx=0;entryDy=0;entryPerimeter=0;" edge="1" parent="1" source="cw3ybI9CJez9jfqQfhBN-15" target="cw3ybI9CJez9jfqQfhBN-16">
          <mxGeometry relative="1" as="geometry" />
        </mxCell>
        <mxCell id="cw3ybI9CJez9jfqQfhBN-18" value="&lt;b&gt;STOP&lt;/b&gt;" style="text;html=1;align=center;verticalAlign=middle;resizable=0;points=[];autosize=1;strokeColor=none;fillColor=none;" vertex="1" parent="1">
          <mxGeometry x="450" y="600" width="60" height="30" as="geometry" />
        </mxCell>
        <mxCell id="cw3ybI9CJez9jfqQfhBN-19" value="" style="outlineConnect=0;dashed=0;verticalLabelPosition=bottom;verticalAlign=top;align=center;html=1;shape=mxgraph.aws3.iam;fillColor=#759C3E;gradientColor=none;" vertex="1" parent="1">
          <mxGeometry x="400" y="530" width="40" height="81" as="geometry" />
        </mxCell>
        <mxCell id="cw3ybI9CJez9jfqQfhBN-20" value="&lt;b&gt;describe instances&lt;/b&gt;&lt;div&gt;&lt;b&gt;start the instance&lt;/b&gt;&lt;/div&gt;&lt;div&gt;&lt;b&gt;stop the instance&lt;/b&gt;&lt;/div&gt;" style="text;html=1;align=left;verticalAlign=middle;resizable=0;points=[];autosize=1;strokeColor=none;fillColor=none;" vertex="1" parent="1">
          <mxGeometry x="450" y="500" width="130" height="60" as="geometry" />
        </mxCell>
        <mxCell id="cw3ybI9CJez9jfqQfhBN-21" value="" style="sketch=0;outlineConnect=0;fontColor=#232F3E;gradientColor=none;fillColor=#E7157B;strokeColor=none;dashed=0;verticalLabelPosition=bottom;verticalAlign=top;align=center;html=1;fontSize=12;fontStyle=0;aspect=fixed;pointerEvents=1;shape=mxgraph.aws4.cloudwatch_logs;" vertex="1" parent="1">
          <mxGeometry x="546" y="720" width="78" height="58" as="geometry" />
        </mxCell>
        <mxCell id="cw3ybI9CJez9jfqQfhBN-25" style="edgeStyle=orthogonalEdgeStyle;rounded=0;orthogonalLoop=1;jettySize=auto;html=1;" edge="1" parent="1" source="cw3ybI9CJez9jfqQfhBN-23">
          <mxGeometry relative="1" as="geometry">
            <mxPoint x="240" y="630" as="targetPoint" />
          </mxGeometry>
        </mxCell>
        <mxCell id="cw3ybI9CJez9jfqQfhBN-23" value="" style="points=[];aspect=fixed;html=1;align=center;shadow=0;dashed=0;fillColor=#FF6A00;strokeColor=none;shape=mxgraph.alibaba_cloud.eventbridge;" vertex="1" parent="1">
          <mxGeometry x="10" y="584" width="90" height="90" as="geometry" />
        </mxCell>
        <mxCell id="cw3ybI9CJez9jfqQfhBN-24" value="&lt;b&gt;Rule&lt;/b&gt;" style="text;html=1;align=center;verticalAlign=middle;resizable=0;points=[];autosize=1;strokeColor=none;fillColor=none;" vertex="1" parent="1">
          <mxGeometry x="30" y="690" width="50" height="30" as="geometry" />
        </mxCell>
        <mxCell id="cw3ybI9CJez9jfqQfhBN-26" value="&lt;b&gt;target&lt;/b&gt;" style="text;html=1;align=center;verticalAlign=middle;resizable=0;points=[];autosize=1;strokeColor=none;fillColor=none;" vertex="1" parent="1">
          <mxGeometry x="125" y="596" width="60" height="30" as="geometry" />
        </mxCell>
        <mxCell id="cw3ybI9CJez9jfqQfhBN-27" value="&lt;b&gt;cron&lt;/b&gt;" style="text;html=1;align=center;verticalAlign=middle;resizable=0;points=[];autosize=1;strokeColor=none;fillColor=none;" vertex="1" parent="1">
          <mxGeometry x="30" y="554" width="50" height="30" as="geometry" />
        </mxCell>
      </root>
    </mxGraphModel>
  </diagram>
</mxfile>
